<svg width="30" height="30" viewBox="0 0 30 30" fill="none" xmlns="http://www.w3.org/2000/svg">
<path d="M30 14.625C30 22.6875 23.4125 29.225 15.275 29.225C12.6875 29.225 10.275 28.5625 8.15 27.4125L0 30L2.6625 22.1625C1.27224 19.8896 0.536859 17.2769 0.5375 14.6125C0.55 6.5375 7.15 0 15.2875 0C23.4 0 30 6.5375 30 14.625ZM15.275 2.3125C8.45 2.3125 2.9 7.825 2.9 14.6C2.9 17.2875 3.775 19.775 5.25 21.8L3.7 26.375L8.45 24.875C10.4775 26.2039 12.8508 26.9081 15.275 26.9C22.1 26.9 27.65 21.4 27.65 14.6125C27.6335 11.3436 26.3216 8.21457 24.0019 5.91128C21.6822 3.60799 18.544 2.31834 15.275 2.325M22.7125 17.975C22.6125 17.825 22.375 17.7375 22.0125 17.5625C21.6625 17.3875 19.8875 16.5125 19.55 16.4C19.225 16.275 18.975 16.2125 18.7375 16.575C18.4875 16.9375 17.8 17.7375 17.6 17.975C17.3875 18.225 17.175 18.25 16.8125 18.075C16.45 17.8875 15.2875 17.5125 13.9125 16.2875C13.1273 15.5658 12.4533 14.7317 11.9125 13.8125C11.6875 13.45 11.875 13.2625 12.0625 13.0875C12.225 12.925 12.425 12.6625 12.6 12.4625C12.7875 12.25 12.85 12.0875 12.9625 11.8625C13.0875 11.6125 13.025 11.4125 12.9375 11.2375C12.8375 11.05 12.125 9.2875 11.8125 8.575C11.5125 7.85 11.2125 7.975 11.0125 7.975C10.8 7.975 10.55 7.9375 10.3125 7.9375C10.0625 7.9375 9.6875 8.0375 9.35 8.3875C9.025 8.75 8.1 9.6125 8.1 11.3875C8.1 13.1375 9.3875 14.8375 9.5625 15.0875C9.7375 15.325 12.0625 19.05 15.725 20.4875C19.4 21.925 19.4 21.45 20.0625 21.3875C20.725 21.325 22.1875 20.5125 22.5 19.6875C22.8 18.85 22.8 18.125 22.7125 17.975Z" fill="#FAF6F3"/>
</svg>
