<svg width="31" height="31" viewBox="0 0 31 31" fill="none" xmlns="http://www.w3.org/2000/svg">
<path d="M21.2307 0.00513685C22.4018 -0.0352967 23.5688 0.16331 24.6606 0.588837C25.7523 1.01436 26.7459 1.65789 27.5807 2.48014C28.3854 3.31489 29.0147 4.3025 29.4312 5.38458C29.8477 6.46666 30.0431 7.62126 30.0057 8.78014V21.2301C30.0057 23.8301 29.1557 26.0676 27.5307 27.6426C25.8069 29.2342 23.5256 30.0829 21.1807 30.0051H8.83073C6.50542 30.0772 4.24574 29.2281 2.54323 27.6426C1.69929 26.7973 1.03845 25.7873 0.601891 24.6755C0.16533 23.5636 -0.0376058 22.3738 0.00572727 21.1801V8.78014C0.00572727 3.50514 3.50573 0.00513685 8.78073 0.00513685H21.2307ZM21.2932 2.79264H8.83073C7.01823 2.79264 5.45573 3.33014 4.41823 4.35514C3.86384 4.94562 3.43421 5.64182 3.155 6.40212C2.8758 7.16242 2.75275 7.9712 2.79323 8.78014V21.1801C2.79323 23.0551 3.33073 24.5551 4.41823 25.6551C5.63112 26.7279 7.21302 27.2881 8.83073 27.2176H21.1807C22.7984 27.2881 24.3803 26.7279 25.5932 25.6551C26.1755 25.079 26.6318 24.3882 26.933 23.6265C27.2343 22.8647 27.374 22.0487 27.3432 21.2301V8.78014C27.3835 7.17097 26.8015 5.60829 25.7182 4.41764C25.1277 3.86325 24.4315 3.43362 23.6712 3.15441C22.9109 2.87521 22.1022 2.75216 21.2932 2.79264ZM15.0057 7.20514C19.2432 7.20514 22.7557 10.7051 22.7557 14.9551C22.7557 17.0106 21.9392 18.9818 20.4858 20.4352C19.0324 21.8886 17.0612 22.7051 15.0057 22.7051C12.9503 22.7051 10.9791 21.8886 9.52565 20.4352C8.07224 18.9818 7.25573 17.0106 7.25573 14.9551C7.25573 12.8997 8.07224 10.9285 9.52565 9.47506C10.9791 8.02165 12.9503 7.20514 15.0057 7.20514ZM15.0057 9.98014C13.6916 9.98671 12.4332 10.5117 11.504 11.4409C10.5747 12.3701 10.0498 13.6285 10.0432 14.9426C10.0498 16.2567 10.5747 17.5152 11.504 18.4444C12.4332 19.3736 13.6916 19.8986 15.0057 19.9051C16.3198 19.8986 17.5783 19.3736 18.5075 18.4444C19.4367 17.5152 19.9617 16.2567 19.9682 14.9426C19.9617 13.6285 19.4367 12.3701 18.5075 11.4409C17.5783 10.5117 16.3198 9.98671 15.0057 9.98014ZM23.0557 5.26764C23.5199 5.26764 23.965 5.45201 24.2932 5.7802C24.6214 6.10839 24.8057 6.55351 24.8057 7.01764C24.8057 7.48177 24.6214 7.92688 24.2932 8.25507C23.965 8.58326 23.5199 8.76764 23.0557 8.76764C22.5916 8.76764 22.1465 8.58326 21.8183 8.25507C21.4901 7.92688 21.3057 7.48177 21.3057 7.01764C21.3057 6.55351 21.4901 6.10839 21.8183 5.7802C22.1465 5.45201 22.5916 5.26764 23.0557 5.26764Z" fill="#FAF6F3"/>
</svg>
