<svg width="178" height="41" viewBox="0 0 178 41" fill="none" xmlns="http://www.w3.org/2000/svg">
<path d="M7.756 33.168C6.58 33.168 5.56267 32.9347 4.704 32.468C3.864 31.9827 3.164 31.3293 2.604 30.508C2.06267 29.668 1.66133 28.7253 1.4 27.68C1.15733 26.616 1.05467 25.5147 1.092 24.376C1.16667 22.3413 1.54 20.5867 2.212 19.112C2.884 17.6373 3.73333 16.424 4.76 15.472C5.78667 14.52 6.888 13.82 8.064 13.372C9.25867 12.9053 10.4067 12.672 11.508 12.672C12.4413 12.672 13.2813 12.8307 14.028 13.148C14.7933 13.4467 15.4 13.8947 15.848 14.492C16.296 15.0707 16.52 15.78 16.52 16.62C16.52 17.2733 16.324 17.908 15.932 18.524C15.5587 19.1213 14.98 19.616 14.196 20.008C13.4307 20.3813 12.4413 20.568 11.228 20.568C11.4333 19.9707 11.5827 19.448 11.676 19C11.7693 18.552 11.816 18.1693 11.816 17.852C11.816 17.1987 11.6667 16.76 11.368 16.536C11.0693 16.2933 10.696 16.172 10.248 16.172C9.70667 16.172 9.19333 16.368 8.708 16.76C8.22267 17.152 7.784 17.684 7.392 18.356C7.01867 19.0093 6.72 19.7373 6.496 20.54C6.272 21.3427 6.14133 22.1547 6.104 22.976C6.02933 25.048 6.328 26.616 7 27.68C7.672 28.744 8.54 29.276 9.604 29.276C10.4253 29.276 11.3307 28.94 12.32 28.268C13.328 27.596 14.3173 26.5787 15.288 25.216L15.652 25.384C15.4093 27.064 14.8773 28.4827 14.056 29.64C13.2347 30.7973 12.264 31.6747 11.144 32.272C10.0427 32.8693 8.91333 33.168 7.756 33.168ZM23.2682 33.196C21.8682 33.196 20.7109 32.916 19.7962 32.356C18.8816 31.796 18.2002 31.0587 17.7522 30.144C17.3229 29.2107 17.1082 28.2213 17.1082 27.176C17.1082 26.1867 17.2856 25.1973 17.6402 24.208C18.0136 23.2187 18.5456 22.3227 19.2362 21.52C19.9456 20.6987 20.8042 20.0453 21.8122 19.56C22.8202 19.056 23.9776 18.804 25.2842 18.804C26.6842 18.804 27.8322 19.0933 28.7282 19.672C29.6429 20.232 30.3149 20.9787 30.7442 21.912C31.1922 22.8453 31.4162 23.844 31.4162 24.908C31.4162 25.8787 31.2389 26.8587 30.8842 27.848C30.5296 28.8187 29.9976 29.7147 29.2882 30.536C28.5976 31.3387 27.7482 31.9827 26.7402 32.468C25.7322 32.9533 24.5749 33.196 23.2682 33.196ZM24.0242 30.816C24.5282 30.816 24.9482 30.5547 25.2842 30.032C25.6202 29.5093 25.8722 28.8467 26.0402 28.044C26.2082 27.2227 26.2922 26.392 26.2922 25.552C26.2922 24.8053 26.2176 24.1053 26.0682 23.452C25.9376 22.78 25.7322 22.2387 25.4522 21.828C25.1722 21.3987 24.8082 21.184 24.3602 21.184C23.8749 21.184 23.4549 21.4453 23.1002 21.968C22.7642 22.4907 22.5122 23.1533 22.3442 23.956C22.1762 24.7587 22.0922 25.5893 22.0922 26.448C22.0922 27.1947 22.1576 27.904 22.2882 28.576C22.4376 29.2293 22.6522 29.7707 22.9322 30.2C23.2122 30.6107 23.5762 30.816 24.0242 30.816ZM35.6081 38.684C35.0668 38.684 34.5535 38.5813 34.0681 38.376C33.5828 38.1893 33.2468 37.9 33.0601 37.508C33.5081 35.604 33.8721 33.9147 34.1521 32.44C34.4508 30.9653 34.6841 29.6493 34.8521 28.492C35.0201 27.3347 35.1415 26.28 35.2161 25.328C35.2908 24.3573 35.3375 23.424 35.3561 22.528C34.7215 22.5653 34.1148 22.6307 33.5361 22.724C32.9575 22.7987 32.4535 22.9107 32.0241 23.06L31.9681 22.864C32.5095 22.3227 33.0695 21.8747 33.6481 21.52C34.2268 21.1467 34.8055 20.848 35.3841 20.624V18.496C35.3841 17.0587 35.6735 15.892 36.2521 14.996C36.8308 14.0813 37.5681 13.4093 38.4641 12.98C39.3788 12.532 40.3215 12.308 41.2921 12.308C42.5801 12.308 43.5415 12.616 44.1761 13.232C44.8295 13.848 45.1561 14.5387 45.1561 15.304C45.1561 15.864 44.9788 16.4053 44.6241 16.928C44.2881 17.4507 43.7748 17.8893 43.0841 18.244C42.3935 18.58 41.5255 18.748 40.4801 18.748C40.7788 18.2067 41.0028 17.6653 41.1521 17.124C41.3201 16.5827 41.4041 16.1067 41.4041 15.696C41.4041 15.3787 41.3575 15.1267 41.2641 14.94C41.1708 14.7347 41.0401 14.632 40.8721 14.632C40.5175 14.632 40.1721 15.08 39.8361 15.976C39.5188 16.8533 39.3601 18.0107 39.3601 19.448V19.98C39.9015 19.9613 40.4148 19.9707 40.9001 20.008C41.4041 20.0453 41.8708 20.0827 42.3001 20.12C42.3375 20.2507 42.3655 20.3907 42.3841 20.54C42.4028 20.6893 42.4121 20.8387 42.4121 20.988C42.4121 21.268 42.3748 21.548 42.3001 21.828C42.2255 22.108 42.1228 22.3973 41.9921 22.696C41.6561 22.6587 41.2735 22.6213 40.8441 22.584C40.4148 22.5467 39.9575 22.5187 39.4721 22.5V23.116C39.4721 24.1427 39.4255 25.328 39.3321 26.672C39.2575 28.016 39.1081 29.612 38.8841 31.46C38.6601 33.308 38.3148 35.5107 37.8481 38.068C37.2695 38.4787 36.5228 38.684 35.6081 38.684ZM46.5183 38.684C45.9769 38.684 45.4636 38.5813 44.9783 38.376C44.4929 38.1893 44.1569 37.9 43.9703 37.508C44.4183 35.604 44.7823 33.9147 45.0623 32.44C45.3609 30.9653 45.5943 29.6493 45.7623 28.492C45.9303 27.3347 46.0516 26.28 46.1263 25.328C46.2009 24.3573 46.2476 23.424 46.2663 22.528C45.6316 22.5653 45.0249 22.6307 44.4463 22.724C43.8676 22.7987 43.3636 22.9107 42.9343 23.06L42.8783 22.864C43.4196 22.3227 43.9796 21.8747 44.5583 21.52C45.1369 21.1467 45.7156 20.848 46.2943 20.624V18.496C46.2943 17.0587 46.5836 15.892 47.1623 14.996C47.7409 14.0813 48.4783 13.4093 49.3743 12.98C50.2889 12.532 51.2316 12.308 52.2023 12.308C53.4903 12.308 54.4516 12.616 55.0863 13.232C55.7396 13.848 56.0663 14.5387 56.0663 15.304C56.0663 15.864 55.8889 16.4053 55.5343 16.928C55.1983 17.4507 54.6849 17.8893 53.9943 18.244C53.3036 18.58 52.4356 18.748 51.3903 18.748C51.6889 18.2067 51.9129 17.6653 52.0623 17.124C52.2303 16.5827 52.3143 16.1067 52.3143 15.696C52.3143 15.3787 52.2676 15.1267 52.1743 14.94C52.0809 14.7347 51.9503 14.632 51.7823 14.632C51.4276 14.632 51.0823 15.08 50.7463 15.976C50.4289 16.8533 50.2703 18.0107 50.2703 19.448V19.98C50.8116 19.9613 51.3249 19.9707 51.8103 20.008C52.3143 20.0453 52.7809 20.0827 53.2103 20.12C53.2476 20.2507 53.2756 20.3907 53.2943 20.54C53.3129 20.6893 53.3223 20.8387 53.3223 20.988C53.3223 21.268 53.2849 21.548 53.2103 21.828C53.1356 22.108 53.0329 22.3973 52.9023 22.696C52.5663 22.6587 52.1836 22.6213 51.7543 22.584C51.3249 22.5467 50.8676 22.5187 50.3823 22.5V23.116C50.3823 24.1427 50.3356 25.328 50.2423 26.672C50.1676 28.016 50.0183 29.612 49.7943 31.46C49.5703 33.308 49.2249 35.5107 48.7583 38.068C48.1796 38.4787 47.4329 38.684 46.5183 38.684ZM59.7428 33.196C58.3801 33.196 57.2508 32.9253 56.3548 32.384C55.4588 31.824 54.7868 31.096 54.3388 30.2C53.8908 29.2853 53.6668 28.3053 53.6668 27.26C53.6668 26.2707 53.8535 25.2813 54.2268 24.292C54.6188 23.284 55.1788 22.3693 55.9068 21.548C56.6535 20.7267 57.5495 20.064 58.5948 19.56C59.6588 19.056 60.8535 18.804 62.1788 18.804C63.8215 18.804 65.0161 19.1773 65.7628 19.924C66.5281 20.652 66.9108 21.5387 66.9108 22.584C66.9108 23.48 66.6681 24.3107 66.1828 25.076C65.7161 25.8227 65.0908 26.4293 64.3068 26.896C63.5228 27.344 62.6641 27.568 61.7308 27.568C61.2455 27.568 60.7508 27.4933 60.2468 27.344C59.7428 27.1947 59.2481 26.9613 58.7628 26.644C58.8561 27.8013 59.1921 28.6413 59.7708 29.164C60.3495 29.6867 61.0401 29.948 61.8428 29.948C62.4028 29.948 62.9628 29.8453 63.5228 29.64C64.0828 29.416 64.5961 29.136 65.0628 28.8C65.5481 28.4453 65.9215 28.072 66.1828 27.68L66.3788 27.82C66.3788 28.7907 66.1735 29.6213 65.7628 30.312C65.3708 30.984 64.8481 31.5347 64.1948 31.964C63.5415 32.3933 62.8228 32.7107 62.0388 32.916C61.2735 33.1027 60.5081 33.196 59.7428 33.196ZM60.3868 25.636C60.9841 25.636 61.4695 25.468 61.8428 25.132C62.2161 24.7773 62.4961 24.3667 62.6828 23.9C62.8695 23.4333 62.9628 23.0227 62.9628 22.668C62.9628 22.2387 62.8415 21.884 62.5988 21.604C62.3561 21.3053 62.0201 21.156 61.5908 21.156C61.2548 21.156 60.8815 21.2773 60.4708 21.52C60.0788 21.7627 59.7241 22.1827 59.4068 22.78C59.0895 23.3587 58.8841 24.1707 58.7908 25.216C59.3881 25.496 59.9201 25.636 60.3868 25.636ZM74.3444 33.196C72.9817 33.196 71.8524 32.9253 70.9564 32.384C70.0604 31.824 69.3884 31.096 68.9404 30.2C68.4924 29.2853 68.2684 28.3053 68.2684 27.26C68.2684 26.2707 68.455 25.2813 68.8284 24.292C69.2204 23.284 69.7804 22.3693 70.5084 21.548C71.255 20.7267 72.151 20.064 73.1964 19.56C74.2604 19.056 75.455 18.804 76.7804 18.804C78.423 18.804 79.6177 19.1773 80.3644 19.924C81.1297 20.652 81.5124 21.5387 81.5124 22.584C81.5124 23.48 81.2697 24.3107 80.7844 25.076C80.3177 25.8227 79.6924 26.4293 78.9084 26.896C78.1244 27.344 77.2657 27.568 76.3324 27.568C75.847 27.568 75.3524 27.4933 74.8484 27.344C74.3444 27.1947 73.8497 26.9613 73.3644 26.644C73.4577 27.8013 73.7937 28.6413 74.3724 29.164C74.951 29.6867 75.6417 29.948 76.4444 29.948C77.0044 29.948 77.5644 29.8453 78.1244 29.64C78.6844 29.416 79.1977 29.136 79.6644 28.8C80.1497 28.4453 80.523 28.072 80.7844 27.68L80.9804 27.82C80.9804 28.7907 80.775 29.6213 80.3644 30.312C79.9724 30.984 79.4497 31.5347 78.7964 31.964C78.143 32.3933 77.4244 32.7107 76.6404 32.916C75.875 33.1027 75.1097 33.196 74.3444 33.196ZM74.9884 25.636C75.5857 25.636 76.071 25.468 76.4444 25.132C76.8177 24.7773 77.0977 24.3667 77.2844 23.9C77.471 23.4333 77.5644 23.0227 77.5644 22.668C77.5644 22.2387 77.443 21.884 77.2004 21.604C76.9577 21.3053 76.6217 21.156 76.1924 21.156C75.8564 21.156 75.483 21.2773 75.0724 21.52C74.6804 21.7627 74.3257 22.1827 74.0084 22.78C73.691 23.3587 73.4857 24.1707 73.3924 25.216C73.9897 25.496 74.5217 25.636 74.9884 25.636ZM91.9332 33.112C91.3359 33.112 90.7665 32.9813 90.2252 32.72C89.7025 32.44 89.2732 32.0107 88.9372 31.432C88.6199 30.8533 88.4612 30.116 88.4612 29.22C88.4612 28.7347 88.5079 28.1 88.6012 27.316C88.6945 26.532 88.8159 25.6733 88.9652 24.74C89.1332 23.8067 89.3012 22.8733 89.4692 21.94C89.0959 21.9587 88.7319 21.996 88.3772 22.052C88.0412 22.108 87.7052 22.1733 87.3692 22.248L87.3132 22.052C87.6865 21.604 88.0785 21.2213 88.4892 20.904C88.8999 20.5867 89.3292 20.3253 89.7772 20.12C90.0199 18.888 90.2252 17.824 90.3932 16.928C90.5612 16.0133 90.6452 15.472 90.6452 15.304C90.6452 14.9867 90.8879 14.7253 91.3732 14.52C91.8772 14.3147 92.4372 14.212 93.0532 14.212C93.5945 14.212 94.0985 14.3147 94.5652 14.52C95.0505 14.7253 95.3772 15.0707 95.5452 15.556C95.4332 15.668 95.2745 16.088 95.0692 16.816C94.8639 17.5253 94.6492 18.3933 94.4252 19.42C94.7799 19.4387 95.1439 19.4573 95.5172 19.476C95.8905 19.4947 96.2732 19.5227 96.6652 19.56C96.7025 19.672 96.7305 19.7933 96.7492 19.924C96.7679 20.0547 96.7772 20.1947 96.7772 20.344C96.7772 20.624 96.7305 20.932 96.6372 21.268C96.5625 21.5853 96.4692 21.8747 96.3572 22.136C95.9092 22.0987 95.4892 22.0613 95.0972 22.024C94.7052 21.968 94.3225 21.9307 93.9492 21.912C93.7999 22.7147 93.6599 23.5173 93.5292 24.32C93.4172 25.1227 93.3239 25.8507 93.2492 26.504C93.1932 27.1573 93.1652 27.6707 93.1652 28.044C93.1652 28.828 93.3052 29.3507 93.5852 29.612C93.8839 29.8733 94.2385 30.004 94.6492 30.004C95.0225 30.004 95.3585 29.9293 95.6572 29.78C95.9559 29.6307 96.1705 29.4533 96.3012 29.248L96.5812 29.332C96.4692 30.0973 96.1705 30.7693 95.6852 31.348C95.1999 31.908 94.6212 32.3467 93.9492 32.664C93.2772 32.9627 92.6052 33.112 91.9332 33.112ZM103.038 18.02C102.291 18.02 101.675 17.796 101.19 17.348C100.723 16.8813 100.49 16.3027 100.49 15.612C100.49 14.8653 100.77 14.2213 101.33 13.68C101.89 13.1387 102.571 12.868 103.374 12.868C104.12 12.868 104.727 13.1013 105.194 13.568C105.679 14.0347 105.922 14.6133 105.922 15.304C105.922 16.0507 105.642 16.6947 105.082 17.236C104.522 17.7587 103.84 18.02 103.038 18.02ZM101.078 33.112C100.35 33.112 99.6963 32.86 99.1176 32.356C98.5389 31.8333 98.2496 31.0027 98.2496 29.864C98.2496 29.2107 98.3336 28.604 98.5016 28.044C98.6883 27.4653 98.8936 26.9053 99.1176 26.364C99.3603 25.8227 99.5656 25.3 99.7336 24.796C99.9203 24.2733 100.014 23.76 100.014 23.256C100.014 22.808 99.9389 22.4907 99.7896 22.304C99.6403 22.0987 99.4629 21.996 99.2576 21.996C98.9403 21.996 98.6323 22.2013 98.3336 22.612L98.1376 22.5C98.2123 21.7533 98.4456 21.1187 98.8376 20.596C99.2483 20.0547 99.7429 19.6347 100.322 19.336C100.919 19.0373 101.507 18.888 102.086 18.888C102.795 18.888 103.411 19.1213 103.934 19.588C104.456 20.036 104.718 20.7733 104.718 21.8C104.718 22.416 104.624 23.0693 104.438 23.76C104.27 24.432 104.064 25.104 103.822 25.776C103.598 26.448 103.392 27.0733 103.206 27.652C103.038 28.2307 102.954 28.7253 102.954 29.136C102.954 29.4907 103.019 29.7427 103.15 29.892C103.299 30.0413 103.458 30.116 103.626 30.116C103.794 30.116 103.952 30.0693 104.102 29.976C104.27 29.864 104.391 29.7427 104.466 29.612L104.662 29.668C104.662 30.3587 104.475 30.9653 104.102 31.488C103.747 31.992 103.299 32.3933 102.758 32.692C102.216 32.972 101.656 33.112 101.078 33.112ZM109.903 33.112C109.231 33.112 108.624 32.8413 108.083 32.3C107.56 31.74 107.299 30.9747 107.299 30.004C107.299 29.5187 107.364 28.968 107.495 28.352C107.626 27.7173 107.766 27.0733 107.915 26.42C108.083 25.7667 108.232 25.1507 108.363 24.572C108.494 23.9933 108.559 23.508 108.559 23.116C108.559 22.7987 108.484 22.5467 108.335 22.36C108.186 22.1547 107.99 22.052 107.747 22.052C107.43 22.052 107.084 22.2387 106.711 22.612L106.543 22.5C106.524 22.2013 106.59 21.8467 106.739 21.436C106.888 21.0253 107.131 20.6333 107.467 20.26C107.803 19.868 108.242 19.5413 108.783 19.28C109.324 19.0187 109.968 18.888 110.715 18.888C111.555 18.888 112.18 19.1867 112.591 19.784C113.02 20.3627 113.235 21.0627 113.235 21.884C113.235 21.9773 113.235 22.08 113.235 22.192C113.235 22.2853 113.226 22.3787 113.207 22.472C113.562 21.8933 113.972 21.3333 114.439 20.792C114.924 20.2507 115.466 19.8027 116.063 19.448C116.679 19.0747 117.342 18.888 118.051 18.888C118.966 18.888 119.6 19.1867 119.955 19.784C120.31 20.3627 120.487 21.0253 120.487 21.772C120.487 21.9213 120.478 22.0707 120.459 22.22C120.459 22.3507 120.45 22.4813 120.431 22.612C120.823 22.0333 121.252 21.464 121.719 20.904C122.204 20.3253 122.755 19.8493 123.371 19.476C123.987 19.084 124.696 18.888 125.499 18.888C126.488 18.888 127.16 19.1773 127.515 19.756C127.888 20.3347 128.075 21.016 128.075 21.8C128.075 22.4907 127.991 23.284 127.823 24.18C127.655 25.0573 127.487 25.9253 127.319 26.784C127.151 27.6427 127.067 28.3707 127.067 28.968C127.067 29.3227 127.114 29.612 127.207 29.836C127.319 30.06 127.496 30.172 127.739 30.172C127.944 30.172 128.131 30.116 128.299 30.004C128.486 29.8733 128.616 29.724 128.691 29.556L128.915 29.64C128.915 30.3307 128.719 30.9373 128.327 31.46C127.935 31.9827 127.44 32.3933 126.843 32.692C126.246 32.972 125.648 33.112 125.051 33.112C124.323 33.112 123.679 32.8693 123.119 32.384C122.578 31.8987 122.307 31.096 122.307 29.976C122.307 29.2853 122.391 28.5387 122.559 27.736C122.746 26.9333 122.923 26.1587 123.091 25.412C123.278 24.6467 123.371 24.0213 123.371 23.536C123.371 22.8453 123.128 22.5 122.643 22.5C122.288 22.5 121.934 22.6493 121.579 22.948C121.243 23.228 120.935 23.6107 120.655 24.096C120.394 24.5627 120.179 25.0573 120.011 25.58C119.843 26.1027 119.759 26.6067 119.759 27.092C119.759 27.54 119.806 28.0347 119.899 28.576C120.011 29.0987 120.067 29.6027 120.067 30.088C120.067 31.0587 119.796 31.8053 119.255 32.328C118.714 32.8507 118.079 33.112 117.351 33.112C116.679 33.112 116.072 32.888 115.531 32.44C115.008 31.992 114.747 31.32 114.747 30.424C114.747 30.0133 114.803 29.5187 114.915 28.94C115.027 28.3427 115.148 27.7267 115.279 27.092C115.428 26.4387 115.559 25.8133 115.671 25.216C115.783 24.6187 115.839 24.096 115.839 23.648C115.839 23.2933 115.783 23.0133 115.671 22.808C115.578 22.6027 115.382 22.5 115.083 22.5C114.654 22.5 114.243 22.7147 113.851 23.144C113.459 23.5733 113.123 24.096 112.843 24.712C112.563 25.3093 112.376 25.888 112.283 26.448C112.264 26.5787 112.246 26.6813 112.227 26.756C112.227 26.8307 112.227 26.868 112.227 26.868C112.227 27.4467 112.292 27.9787 112.423 28.464C112.554 28.9307 112.619 29.416 112.619 29.92C112.619 30.8347 112.339 31.6 111.779 32.216C111.238 32.8133 110.612 33.112 109.903 33.112ZM136.169 33.196C134.806 33.196 133.677 32.9253 132.781 32.384C131.885 31.824 131.213 31.096 130.765 30.2C130.317 29.2853 130.093 28.3053 130.093 27.26C130.093 26.2707 130.279 25.2813 130.653 24.292C131.045 23.284 131.605 22.3693 132.333 21.548C133.079 20.7267 133.975 20.064 135.021 19.56C136.085 19.056 137.279 18.804 138.605 18.804C140.247 18.804 141.442 19.1773 142.189 19.924C142.954 20.652 143.337 21.5387 143.337 22.584C143.337 23.48 143.094 24.3107 142.609 25.076C142.142 25.8227 141.517 26.4293 140.733 26.896C139.949 27.344 139.09 27.568 138.157 27.568C137.671 27.568 137.177 27.4933 136.673 27.344C136.169 27.1947 135.674 26.9613 135.189 26.644C135.282 27.8013 135.618 28.6413 136.197 29.164C136.775 29.6867 137.466 29.948 138.269 29.948C138.829 29.948 139.389 29.8453 139.949 29.64C140.509 29.416 141.022 29.136 141.489 28.8C141.974 28.4453 142.347 28.072 142.609 27.68L142.805 27.82C142.805 28.7907 142.599 29.6213 142.189 30.312C141.797 30.984 141.274 31.5347 140.621 31.964C139.967 32.3933 139.249 32.7107 138.465 32.916C137.699 33.1027 136.934 33.196 136.169 33.196ZM136.813 25.636C137.41 25.636 137.895 25.468 138.269 25.132C138.642 24.7773 138.922 24.3667 139.109 23.9C139.295 23.4333 139.389 23.0227 139.389 22.668C139.389 22.2387 139.267 21.884 139.025 21.604C138.782 21.3053 138.446 21.156 138.017 21.156C137.681 21.156 137.307 21.2773 136.897 21.52C136.505 21.7627 136.15 22.1827 135.833 22.78C135.515 23.3587 135.31 24.1707 135.217 25.216C135.814 25.496 136.346 25.636 136.813 25.636Z" fill="#FAF6F3"/>
<g clip-path="url(#clip0_1_167)">
<path d="M170.5 15.5H171.75C173.076 15.5 174.348 16.0268 175.286 16.9645C176.223 17.9021 176.75 19.1739 176.75 20.5C176.75 21.8261 176.223 23.0979 175.286 24.0355C174.348 24.9732 173.076 25.5 171.75 25.5H170.5" stroke="#FAF6F3" stroke-width="3" stroke-linecap="round" stroke-linejoin="round"/>
<path d="M150.5 15.5H170.5V26.75C170.5 28.0761 169.973 29.3479 169.036 30.2855C168.098 31.2232 166.826 31.75 165.5 31.75H155.5C154.174 31.75 152.902 31.2232 151.964 30.2855C151.027 29.3479 150.5 28.0761 150.5 26.75V15.5Z" stroke="#FAF6F3" stroke-width="3" stroke-linecap="round" stroke-linejoin="round"/>
<path d="M155.5 6.75V10.5" stroke="#FAF6F3" stroke-width="3" stroke-linecap="round" stroke-linejoin="round"/>
<path d="M160.5 6.75V10.5" stroke="#FAF6F3" stroke-width="3" stroke-linecap="round" stroke-linejoin="round"/>
<path d="M165.5 6.75V10.5" stroke="#FAF6F3" stroke-width="3" stroke-linecap="round" stroke-linejoin="round"/>
</g>
<defs>
<clipPath id="clip0_1_167">
<rect width="30" height="30" fill="white" transform="translate(148 5.5)"/>
</clipPath>
</defs>
</svg>
