<svg width="30" height="30" viewBox="0 0 30 30" fill="none" xmlns="http://www.w3.org/2000/svg">
<path d="M21.2249 9.90042e-06C22.3959 -0.0404237 23.5629 0.158183 24.6547 0.58371C25.7465 1.00924 26.7401 1.65276 27.5749 2.47501C28.3796 3.30977 29.0088 4.29737 29.4253 5.37945C29.8418 6.46153 30.0372 7.61613 29.9999 8.77501V21.225C29.9999 23.825 29.1499 26.0625 27.5249 27.6375C25.801 29.229 23.5198 30.0778 21.1749 30H8.82487C6.49956 30.072 4.23988 29.223 2.53737 27.6375C1.69343 26.7922 1.03259 25.7822 0.596032 24.6704C0.15947 23.5585 -0.0434652 22.3687 -0.00013211 21.175V8.77501C-0.00013211 3.50001 3.49987 9.90042e-06 8.77487 9.90042e-06H21.2249ZM21.2874 2.78751H8.82487C7.01237 2.78751 5.44987 3.32501 4.41237 4.35001C3.85799 4.94049 3.42835 5.63669 3.14914 6.39699C2.86994 7.15729 2.7469 7.96608 2.78737 8.77501V21.175C2.78737 23.05 3.32487 24.55 4.41237 25.65C5.62526 26.7228 7.20716 27.2829 8.82487 27.2125H21.1749C22.7926 27.2829 24.3745 26.7228 25.5874 25.65C26.1697 25.0739 26.6259 24.3831 26.9272 23.6213C27.2284 22.8596 27.3681 22.0436 27.3374 21.225V8.77501C27.3777 7.16584 26.7956 5.60316 25.7124 4.41251C25.1219 3.85813 24.4257 3.42849 23.6654 3.14929C22.9051 2.87008 22.0963 2.74704 21.2874 2.78751ZM14.9999 7.20001C19.2374 7.20001 22.7499 10.7 22.7499 14.95C22.7499 17.0054 21.9334 18.9767 20.4799 20.4301C19.0265 21.8835 17.0553 22.7 14.9999 22.7C12.9444 22.7 10.9732 21.8835 9.51979 20.4301C8.06638 18.9767 7.24987 17.0054 7.24987 14.95C7.24987 12.8946 8.06638 10.9233 9.51979 9.46993C10.9732 8.01653 12.9444 7.20001 14.9999 7.20001ZM14.9999 9.97501C13.6858 9.98158 12.4273 10.5065 11.4981 11.4358C10.5689 12.365 10.0439 13.6234 10.0374 14.9375C10.0439 16.2516 10.5689 17.51 11.4981 18.4393C12.4273 19.3685 13.6858 19.8934 14.9999 19.9C16.314 19.8934 17.5724 19.3685 18.5016 18.4393C19.4309 17.51 19.9558 16.2516 19.9624 14.9375C19.9558 13.6234 19.4309 12.365 18.5016 11.4358C17.5724 10.5065 16.314 9.98158 14.9999 9.97501ZM23.0499 5.26251C23.514 5.26251 23.9591 5.44688 24.2873 5.77507C24.6155 6.10326 24.7999 6.54838 24.7999 7.01251C24.7999 7.47664 24.6155 7.92176 24.2873 8.24995C23.9591 8.57814 23.514 8.76251 23.0499 8.76251C22.5857 8.76251 22.1406 8.57814 21.8124 8.24995C21.4842 7.92176 21.2999 7.47664 21.2999 7.01251C21.2999 6.54838 21.4842 6.10326 21.8124 5.77507C22.1406 5.44688 22.5857 5.26251 23.0499 5.26251Z" fill="#FAF6F3"/>
</svg>
