<svg width="178" height="42" viewBox="0 0 178 42" fill="none" xmlns="http://www.w3.org/2000/svg">
<path d="M7.756 33.668C6.58 33.668 5.56267 33.4347 4.704 32.968C3.864 32.4827 3.164 31.8293 2.604 31.008C2.06267 30.168 1.66133 29.2253 1.4 28.18C1.15733 27.116 1.05467 26.0147 1.092 24.876C1.16667 22.8413 1.54 21.0867 2.212 19.612C2.884 18.1373 3.73333 16.924 4.76 15.972C5.78667 15.02 6.888 14.32 8.064 13.872C9.25867 13.4053 10.4067 13.172 11.508 13.172C12.4413 13.172 13.2813 13.3307 14.028 13.648C14.7933 13.9467 15.4 14.3947 15.848 14.992C16.296 15.5707 16.52 16.28 16.52 17.12C16.52 17.7733 16.324 18.408 15.932 19.024C15.5587 19.6213 14.98 20.116 14.196 20.508C13.4307 20.8813 12.4413 21.068 11.228 21.068C11.4333 20.4707 11.5827 19.948 11.676 19.5C11.7693 19.052 11.816 18.6693 11.816 18.352C11.816 17.6987 11.6667 17.26 11.368 17.036C11.0693 16.7933 10.696 16.672 10.248 16.672C9.70667 16.672 9.19333 16.868 8.708 17.26C8.22267 17.652 7.784 18.184 7.392 18.856C7.01867 19.5093 6.72 20.2373 6.496 21.04C6.272 21.8427 6.14133 22.6547 6.104 23.476C6.02933 25.548 6.328 27.116 7 28.18C7.672 29.244 8.54 29.776 9.604 29.776C10.4253 29.776 11.3307 29.44 12.32 28.768C13.328 28.096 14.3173 27.0787 15.288 25.716L15.652 25.884C15.4093 27.564 14.8773 28.9827 14.056 30.14C13.2347 31.2973 12.264 32.1747 11.144 32.772C10.0427 33.3693 8.91333 33.668 7.756 33.668ZM23.1862 33.696C21.7862 33.696 20.6289 33.416 19.7142 32.856C18.7995 32.296 18.1182 31.5587 17.6702 30.644C17.2409 29.7107 17.0262 28.7213 17.0262 27.676C17.0262 26.6867 17.2035 25.6973 17.5582 24.708C17.9315 23.7187 18.4635 22.8227 19.1542 22.02C19.8635 21.1987 20.7222 20.5453 21.7302 20.06C22.7382 19.556 23.8955 19.304 25.2022 19.304C26.6022 19.304 27.7502 19.5933 28.6462 20.172C29.5609 20.732 30.2329 21.4787 30.6622 22.412C31.1102 23.3453 31.3342 24.344 31.3342 25.408C31.3342 26.3787 31.1569 27.3587 30.8022 28.348C30.4475 29.3187 29.9155 30.2147 29.2062 31.036C28.5155 31.8387 27.6662 32.4827 26.6582 32.968C25.6502 33.4533 24.4929 33.696 23.1862 33.696ZM23.9422 31.316C24.4462 31.316 24.8662 31.0547 25.2022 30.532C25.5382 30.0093 25.7902 29.3467 25.9582 28.544C26.1262 27.7227 26.2102 26.892 26.2102 26.052C26.2102 25.3053 26.1355 24.6053 25.9862 23.952C25.8555 23.28 25.6502 22.7387 25.3702 22.328C25.0902 21.8987 24.7262 21.684 24.2782 21.684C23.7929 21.684 23.3729 21.9453 23.0182 22.468C22.6822 22.9907 22.4302 23.6533 22.2622 24.456C22.0942 25.2587 22.0102 26.0893 22.0102 26.948C22.0102 27.6947 22.0755 28.404 22.2062 29.076C22.3555 29.7293 22.5702 30.2707 22.8502 30.7C23.1302 31.1107 23.4942 31.316 23.9422 31.316ZM35.4988 39.184C34.9574 39.184 34.4441 39.0813 33.9588 38.876C33.4734 38.6893 33.1374 38.4 32.9508 38.008C33.3988 36.104 33.7628 34.4147 34.0428 32.94C34.3414 31.4653 34.5748 30.1493 34.7428 28.992C34.9108 27.8347 35.0321 26.78 35.1068 25.828C35.1814 24.8573 35.2281 23.924 35.2468 23.028C34.6121 23.0653 34.0054 23.1307 33.4268 23.224C32.8481 23.2987 32.3441 23.4107 31.9148 23.56L31.8588 23.364C32.4001 22.8227 32.9601 22.3747 33.5388 22.02C34.1174 21.6467 34.6961 21.348 35.2748 21.124V18.996C35.2748 17.5587 35.5641 16.392 36.1428 15.496C36.7214 14.5813 37.4588 13.9093 38.3548 13.48C39.2694 13.032 40.2121 12.808 41.1828 12.808C42.4708 12.808 43.4321 13.116 44.0668 13.732C44.7201 14.348 45.0468 15.0387 45.0468 15.804C45.0468 16.364 44.8694 16.9053 44.5148 17.428C44.1788 17.9507 43.6654 18.3893 42.9748 18.744C42.2841 19.08 41.4161 19.248 40.3708 19.248C40.6694 18.7067 40.8934 18.1653 41.0428 17.624C41.2108 17.0827 41.2948 16.6067 41.2948 16.196C41.2948 15.8787 41.2481 15.6267 41.1548 15.44C41.0614 15.2347 40.9308 15.132 40.7628 15.132C40.4081 15.132 40.0628 15.58 39.7268 16.476C39.4094 17.3533 39.2508 18.5107 39.2508 19.948V20.48C39.7921 20.4613 40.3054 20.4707 40.7908 20.508C41.2948 20.5453 41.7614 20.5827 42.1908 20.62C42.2281 20.7507 42.2561 20.8907 42.2748 21.04C42.2934 21.1893 42.3028 21.3387 42.3028 21.488C42.3028 21.768 42.2654 22.048 42.1908 22.328C42.1161 22.608 42.0134 22.8973 41.8828 23.196C41.5468 23.1587 41.1641 23.1213 40.7348 23.084C40.3054 23.0467 39.8481 23.0187 39.3628 23V23.616C39.3628 24.6427 39.3161 25.828 39.2228 27.172C39.1481 28.516 38.9988 30.112 38.7748 31.96C38.5508 33.808 38.2054 36.0107 37.7388 38.568C37.1601 38.9787 36.4134 39.184 35.4988 39.184ZM46.4089 39.184C45.8676 39.184 45.3542 39.0813 44.8689 38.876C44.3836 38.6893 44.0476 38.4 43.8609 38.008C44.3089 36.104 44.6729 34.4147 44.9529 32.94C45.2516 31.4653 45.4849 30.1493 45.6529 28.992C45.8209 27.8347 45.9422 26.78 46.0169 25.828C46.0916 24.8573 46.1382 23.924 46.1569 23.028C45.5222 23.0653 44.9156 23.1307 44.3369 23.224C43.7582 23.2987 43.2542 23.4107 42.8249 23.56L42.7689 23.364C43.3102 22.8227 43.8702 22.3747 44.4489 22.02C45.0276 21.6467 45.6062 21.348 46.1849 21.124V18.996C46.1849 17.5587 46.4742 16.392 47.0529 15.496C47.6316 14.5813 48.3689 13.9093 49.2649 13.48C50.1796 13.032 51.1222 12.808 52.0929 12.808C53.3809 12.808 54.3422 13.116 54.9769 13.732C55.6302 14.348 55.9569 15.0387 55.9569 15.804C55.9569 16.364 55.7796 16.9053 55.4249 17.428C55.0889 17.9507 54.5756 18.3893 53.8849 18.744C53.1942 19.08 52.3262 19.248 51.2809 19.248C51.5796 18.7067 51.8036 18.1653 51.9529 17.624C52.1209 17.0827 52.2049 16.6067 52.2049 16.196C52.2049 15.8787 52.1582 15.6267 52.0649 15.44C51.9716 15.2347 51.8409 15.132 51.6729 15.132C51.3182 15.132 50.9729 15.58 50.6369 16.476C50.3196 17.3533 50.1609 18.5107 50.1609 19.948V20.48C50.7022 20.4613 51.2156 20.4707 51.7009 20.508C52.2049 20.5453 52.6716 20.5827 53.1009 20.62C53.1382 20.7507 53.1662 20.8907 53.1849 21.04C53.2036 21.1893 53.2129 21.3387 53.2129 21.488C53.2129 21.768 53.1756 22.048 53.1009 22.328C53.0262 22.608 52.9236 22.8973 52.7929 23.196C52.4569 23.1587 52.0742 23.1213 51.6449 23.084C51.2156 23.0467 50.7582 23.0187 50.2729 23V23.616C50.2729 24.6427 50.2262 25.828 50.1329 27.172C50.0582 28.516 49.9089 30.112 49.6849 31.96C49.4609 33.808 49.1156 36.0107 48.6489 38.568C48.0702 38.9787 47.3236 39.184 46.4089 39.184ZM59.6061 33.696C58.2434 33.696 57.1141 33.4253 56.2181 32.884C55.3221 32.324 54.6501 31.596 54.2021 30.7C53.7541 29.7853 53.5301 28.8053 53.5301 27.76C53.5301 26.7707 53.7168 25.7813 54.0901 24.792C54.4821 23.784 55.0421 22.8693 55.7701 22.048C56.5168 21.2267 57.4128 20.564 58.4581 20.06C59.5221 19.556 60.7168 19.304 62.0421 19.304C63.6848 19.304 64.8794 19.6773 65.6261 20.424C66.3914 21.152 66.7741 22.0387 66.7741 23.084C66.7741 23.98 66.5314 24.8107 66.0461 25.576C65.5794 26.3227 64.9541 26.9293 64.1701 27.396C63.3861 27.844 62.5274 28.068 61.5941 28.068C61.1088 28.068 60.6141 27.9933 60.1101 27.844C59.6061 27.6947 59.1114 27.4613 58.6261 27.144C58.7194 28.3013 59.0554 29.1413 59.6341 29.664C60.2128 30.1867 60.9034 30.448 61.7061 30.448C62.2661 30.448 62.8261 30.3453 63.3861 30.14C63.9461 29.916 64.4594 29.636 64.9261 29.3C65.4114 28.9453 65.7848 28.572 66.0461 28.18L66.2421 28.32C66.2421 29.2907 66.0368 30.1213 65.6261 30.812C65.2341 31.484 64.7114 32.0347 64.0581 32.464C63.4048 32.8933 62.6861 33.2107 61.9021 33.416C61.1368 33.6027 60.3714 33.696 59.6061 33.696ZM60.2501 26.136C60.8474 26.136 61.3328 25.968 61.7061 25.632C62.0794 25.2773 62.3594 24.8667 62.5461 24.4C62.7328 23.9333 62.8261 23.5227 62.8261 23.168C62.8261 22.7387 62.7048 22.384 62.4621 22.104C62.2194 21.8053 61.8834 21.656 61.4541 21.656C61.1181 21.656 60.7448 21.7773 60.3341 22.02C59.9421 22.2627 59.5874 22.6827 59.2701 23.28C58.9528 23.8587 58.7474 24.6707 58.6541 25.716C59.2514 25.996 59.7834 26.136 60.2501 26.136ZM74.2077 33.696C72.845 33.696 71.7157 33.4253 70.8197 32.884C69.9237 32.324 69.2517 31.596 68.8037 30.7C68.3557 29.7853 68.1317 28.8053 68.1317 27.76C68.1317 26.7707 68.3183 25.7813 68.6917 24.792C69.0837 23.784 69.6437 22.8693 70.3717 22.048C71.1183 21.2267 72.0143 20.564 73.0597 20.06C74.1237 19.556 75.3183 19.304 76.6437 19.304C78.2863 19.304 79.481 19.6773 80.2277 20.424C80.993 21.152 81.3757 22.0387 81.3757 23.084C81.3757 23.98 81.133 24.8107 80.6477 25.576C80.181 26.3227 79.5557 26.9293 78.7717 27.396C77.9877 27.844 77.129 28.068 76.1957 28.068C75.7103 28.068 75.2157 27.9933 74.7117 27.844C74.2077 27.6947 73.713 27.4613 73.2277 27.144C73.321 28.3013 73.657 29.1413 74.2357 29.664C74.8143 30.1867 75.505 30.448 76.3077 30.448C76.8677 30.448 77.4277 30.3453 77.9877 30.14C78.5477 29.916 79.061 29.636 79.5277 29.3C80.013 28.9453 80.3863 28.572 80.6477 28.18L80.8437 28.32C80.8437 29.2907 80.6383 30.1213 80.2277 30.812C79.8357 31.484 79.313 32.0347 78.6597 32.464C78.0063 32.8933 77.2877 33.2107 76.5037 33.416C75.7383 33.6027 74.973 33.696 74.2077 33.696ZM74.8517 26.136C75.449 26.136 75.9343 25.968 76.3077 25.632C76.681 25.2773 76.961 24.8667 77.1477 24.4C77.3343 23.9333 77.4277 23.5227 77.4277 23.168C77.4277 22.7387 77.3063 22.384 77.0637 22.104C76.821 21.8053 76.485 21.656 76.0557 21.656C75.7197 21.656 75.3463 21.7773 74.9357 22.02C74.5437 22.2627 74.189 22.6827 73.8717 23.28C73.5543 23.8587 73.349 24.6707 73.2557 25.716C73.853 25.996 74.385 26.136 74.8517 26.136ZM91.7965 33.612C91.1991 33.612 90.6298 33.4813 90.0885 33.22C89.5658 32.94 89.1365 32.5107 88.8005 31.932C88.4831 31.3533 88.3245 30.616 88.3245 29.72C88.3245 29.2347 88.3711 28.6 88.4645 27.816C88.5578 27.032 88.6791 26.1733 88.8285 25.24C88.9965 24.3067 89.1645 23.3733 89.3325 22.44C88.9591 22.4587 88.5951 22.496 88.2405 22.552C87.9045 22.608 87.5685 22.6733 87.2325 22.748L87.1765 22.552C87.5498 22.104 87.9418 21.7213 88.3525 21.404C88.7631 21.0867 89.1925 20.8253 89.6405 20.62C89.8831 19.388 90.0885 18.324 90.2565 17.428C90.4245 16.5133 90.5085 15.972 90.5085 15.804C90.5085 15.4867 90.7511 15.2253 91.2365 15.02C91.7405 14.8147 92.3005 14.712 92.9165 14.712C93.4578 14.712 93.9618 14.8147 94.4285 15.02C94.9138 15.2253 95.2405 15.5707 95.4085 16.056C95.2965 16.168 95.1378 16.588 94.9325 17.316C94.7271 18.0253 94.5125 18.8933 94.2885 19.92C94.6431 19.9387 95.0071 19.9573 95.3805 19.976C95.7538 19.9947 96.1365 20.0227 96.5285 20.06C96.5658 20.172 96.5938 20.2933 96.6125 20.424C96.6311 20.5547 96.6405 20.6947 96.6405 20.844C96.6405 21.124 96.5938 21.432 96.5005 21.768C96.4258 22.0853 96.3325 22.3747 96.2205 22.636C95.7725 22.5987 95.3525 22.5613 94.9605 22.524C94.5685 22.468 94.1858 22.4307 93.8125 22.412C93.6631 23.2147 93.5231 24.0173 93.3925 24.82C93.2805 25.6227 93.1871 26.3507 93.1125 27.004C93.0565 27.6573 93.0285 28.1707 93.0285 28.544C93.0285 29.328 93.1685 29.8507 93.4485 30.112C93.7471 30.3733 94.1018 30.504 94.5125 30.504C94.8858 30.504 95.2218 30.4293 95.5205 30.28C95.8191 30.1307 96.0338 29.9533 96.1645 29.748L96.4445 29.832C96.3325 30.5973 96.0338 31.2693 95.5485 31.848C95.0631 32.408 94.4845 32.8467 93.8125 33.164C93.1405 33.4627 92.4685 33.612 91.7965 33.612ZM102.956 18.52C102.209 18.52 101.593 18.296 101.108 17.848C100.641 17.3813 100.408 16.8027 100.408 16.112C100.408 15.3653 100.688 14.7213 101.248 14.18C101.808 13.6387 102.489 13.368 103.292 13.368C104.038 13.368 104.645 13.6013 105.112 14.068C105.597 14.5347 105.84 15.1133 105.84 15.804C105.84 16.5507 105.56 17.1947 105 17.736C104.44 18.2587 103.758 18.52 102.956 18.52ZM100.996 33.612C100.268 33.612 99.6142 33.36 99.0356 32.856C98.4569 32.3333 98.1676 31.5027 98.1676 30.364C98.1676 29.7107 98.2516 29.104 98.4196 28.544C98.6062 27.9653 98.8116 27.4053 99.0356 26.864C99.2782 26.3227 99.4836 25.8 99.6516 25.296C99.8382 24.7733 99.9316 24.26 99.9316 23.756C99.9316 23.308 99.8569 22.9907 99.7076 22.804C99.5582 22.5987 99.3809 22.496 99.1756 22.496C98.8582 22.496 98.5502 22.7013 98.2516 23.112L98.0556 23C98.1302 22.2533 98.3636 21.6187 98.7556 21.096C99.1662 20.5547 99.6609 20.1347 100.24 19.836C100.837 19.5373 101.425 19.388 102.004 19.388C102.713 19.388 103.329 19.6213 103.852 20.088C104.374 20.536 104.636 21.2733 104.636 22.3C104.636 22.916 104.542 23.5693 104.356 24.26C104.188 24.932 103.982 25.604 103.74 26.276C103.516 26.948 103.31 27.5733 103.124 28.152C102.956 28.7307 102.872 29.2253 102.872 29.636C102.872 29.9907 102.937 30.2427 103.068 30.392C103.217 30.5413 103.376 30.616 103.544 30.616C103.712 30.616 103.87 30.5693 104.02 30.476C104.188 30.364 104.309 30.2427 104.384 30.112L104.58 30.168C104.58 30.8587 104.393 31.4653 104.02 31.988C103.665 32.492 103.217 32.8933 102.676 33.192C102.134 33.472 101.574 33.612 100.996 33.612ZM109.821 33.612C109.149 33.612 108.542 33.3413 108.001 32.8C107.478 32.24 107.217 31.4747 107.217 30.504C107.217 30.0187 107.282 29.468 107.413 28.852C107.544 28.2173 107.684 27.5733 107.833 26.92C108.001 26.2667 108.15 25.6507 108.281 25.072C108.412 24.4933 108.477 24.008 108.477 23.616C108.477 23.2987 108.402 23.0467 108.253 22.86C108.104 22.6547 107.908 22.552 107.665 22.552C107.348 22.552 107.002 22.7387 106.629 23.112L106.461 23C106.442 22.7013 106.508 22.3467 106.657 21.936C106.806 21.5253 107.049 21.1333 107.385 20.76C107.721 20.368 108.16 20.0413 108.701 19.78C109.242 19.5187 109.886 19.388 110.633 19.388C111.473 19.388 112.098 19.6867 112.509 20.284C112.938 20.8627 113.153 21.5627 113.153 22.384C113.153 22.4773 113.153 22.58 113.153 22.692C113.153 22.7853 113.144 22.8787 113.125 22.972C113.48 22.3933 113.89 21.8333 114.357 21.292C114.842 20.7507 115.384 20.3027 115.981 19.948C116.597 19.5747 117.26 19.388 117.969 19.388C118.884 19.388 119.518 19.6867 119.873 20.284C120.228 20.8627 120.405 21.5253 120.405 22.272C120.405 22.4213 120.396 22.5707 120.377 22.72C120.377 22.8507 120.368 22.9813 120.349 23.112C120.741 22.5333 121.17 21.964 121.637 21.404C122.122 20.8253 122.673 20.3493 123.289 19.976C123.905 19.584 124.614 19.388 125.417 19.388C126.406 19.388 127.078 19.6773 127.433 20.256C127.806 20.8347 127.993 21.516 127.993 22.3C127.993 22.9907 127.909 23.784 127.741 24.68C127.573 25.5573 127.405 26.4253 127.237 27.284C127.069 28.1427 126.985 28.8707 126.985 29.468C126.985 29.8227 127.032 30.112 127.125 30.336C127.237 30.56 127.414 30.672 127.657 30.672C127.862 30.672 128.049 30.616 128.217 30.504C128.404 30.3733 128.534 30.224 128.609 30.056L128.833 30.14C128.833 30.8307 128.637 31.4373 128.245 31.96C127.853 32.4827 127.358 32.8933 126.761 33.192C126.164 33.472 125.566 33.612 124.969 33.612C124.241 33.612 123.597 33.3693 123.037 32.884C122.496 32.3987 122.225 31.596 122.225 30.476C122.225 29.7853 122.309 29.0387 122.477 28.236C122.664 27.4333 122.841 26.6587 123.009 25.912C123.196 25.1467 123.289 24.5213 123.289 24.036C123.289 23.3453 123.046 23 122.561 23C122.206 23 121.852 23.1493 121.497 23.448C121.161 23.728 120.853 24.1107 120.573 24.596C120.312 25.0627 120.097 25.5573 119.929 26.08C119.761 26.6027 119.677 27.1067 119.677 27.592C119.677 28.04 119.724 28.5347 119.817 29.076C119.929 29.5987 119.985 30.1027 119.985 30.588C119.985 31.5587 119.714 32.3053 119.173 32.828C118.632 33.3507 117.997 33.612 117.269 33.612C116.597 33.612 115.99 33.388 115.449 32.94C114.926 32.492 114.665 31.82 114.665 30.924C114.665 30.5133 114.721 30.0187 114.833 29.44C114.945 28.8427 115.066 28.2267 115.197 27.592C115.346 26.9387 115.477 26.3133 115.589 25.716C115.701 25.1187 115.757 24.596 115.757 24.148C115.757 23.7933 115.701 23.5133 115.589 23.308C115.496 23.1027 115.3 23 115.001 23C114.572 23 114.161 23.2147 113.769 23.644C113.377 24.0733 113.041 24.596 112.761 25.212C112.481 25.8093 112.294 26.388 112.201 26.948C112.182 27.0787 112.164 27.1813 112.145 27.256C112.145 27.3307 112.145 27.368 112.145 27.368C112.145 27.9467 112.21 28.4787 112.341 28.964C112.472 29.4307 112.537 29.916 112.537 30.42C112.537 31.3347 112.257 32.1 111.697 32.716C111.156 33.3133 110.53 33.612 109.821 33.612ZM136.141 33.696C134.779 33.696 133.649 33.4253 132.753 32.884C131.857 32.324 131.185 31.596 130.737 30.7C130.289 29.7853 130.065 28.8053 130.065 27.76C130.065 26.7707 130.252 25.7813 130.625 24.792C131.017 23.784 131.577 22.8693 132.305 22.048C133.052 21.2267 133.948 20.564 134.993 20.06C136.057 19.556 137.252 19.304 138.577 19.304C140.22 19.304 141.415 19.6773 142.161 20.424C142.927 21.152 143.309 22.0387 143.309 23.084C143.309 23.98 143.067 24.8107 142.581 25.576C142.115 26.3227 141.489 26.9293 140.705 27.396C139.921 27.844 139.063 28.068 138.129 28.068C137.644 28.068 137.149 27.9933 136.645 27.844C136.141 27.6947 135.647 27.4613 135.161 27.144C135.255 28.3013 135.591 29.1413 136.169 29.664C136.748 30.1867 137.439 30.448 138.241 30.448C138.801 30.448 139.361 30.3453 139.921 30.14C140.481 29.916 140.995 29.636 141.461 29.3C141.947 28.9453 142.32 28.572 142.581 28.18L142.777 28.32C142.777 29.2907 142.572 30.1213 142.161 30.812C141.769 31.484 141.247 32.0347 140.593 32.464C139.94 32.8933 139.221 33.2107 138.437 33.416C137.672 33.6027 136.907 33.696 136.141 33.696ZM136.785 26.136C137.383 26.136 137.868 25.968 138.241 25.632C138.615 25.2773 138.895 24.8667 139.081 24.4C139.268 23.9333 139.361 23.5227 139.361 23.168C139.361 22.7387 139.24 22.384 138.997 22.104C138.755 21.8053 138.419 21.656 137.989 21.656C137.653 21.656 137.28 21.7773 136.869 22.02C136.477 22.2627 136.123 22.6827 135.805 23.28C135.488 23.8587 135.283 24.6707 135.189 25.716C135.787 25.996 136.319 26.136 136.785 26.136Z" fill="#FAF6F3"/>
<g clip-path="url(#clip0_141_188)">
<path d="M170.5 16H171.75C173.076 16 174.348 16.5268 175.286 17.4645C176.223 18.4021 176.75 19.6739 176.75 21C176.75 22.3261 176.223 23.5979 175.286 24.5355C174.348 25.4732 173.076 26 171.75 26H170.5" stroke="#FAF6F3" stroke-width="3" stroke-linecap="round" stroke-linejoin="round"/>
<path d="M150.5 16H170.5V27.25C170.5 28.5761 169.973 29.8479 169.036 30.7855C168.098 31.7232 166.826 32.25 165.5 32.25H155.5C154.174 32.25 152.902 31.7232 151.964 30.7855C151.027 29.8479 150.5 28.5761 150.5 27.25V16Z" stroke="#FAF6F3" stroke-width="3" stroke-linecap="round" stroke-linejoin="round"/>
<path d="M155.5 7.25V11" stroke="#FAF6F3" stroke-width="3" stroke-linecap="round" stroke-linejoin="round"/>
<path d="M160.5 7.25V11" stroke="#FAF6F3" stroke-width="3" stroke-linecap="round" stroke-linejoin="round"/>
<path d="M165.5 7.25V11" stroke="#FAF6F3" stroke-width="3" stroke-linecap="round" stroke-linejoin="round"/>
</g>
<defs>
<clipPath id="clip0_141_188">
<rect width="30" height="30" fill="white" transform="translate(148 6)"/>
</clipPath>
</defs>
</svg>
